<svg width="1200" height="820" viewBox="0 0 1200 820" fill="none" xmlns="http://www.w3.org/2000/svg" role="img" aria-labelledby="title desc">
  <title id="title">CSV to JSON converter illustration</title>
  <desc id="desc">An original SVG showing spreadsheet columns transforming into structured JSON cards for product imports.</desc>
  <defs>
    <linearGradient id="bg" x1="94" y1="58" x2="1114" y2="762" gradientUnits="userSpaceOnUse">
      <stop stop-color="#D66B39"/>
      <stop offset="1" stop-color="#0A7D74"/>
    </linearGradient>
    <linearGradient id="sheet" x1="154" y1="132" x2="534" y2="664" gradientUnits="userSpaceOnUse">
      <stop stop-color="#FFF8F1"/>
      <stop offset="1" stop-color="#F7F0E7"/>
    </linearGradient>
    <linearGradient id="jsonCard" x1="658" y1="174" x2="1002" y2="633" gradientUnits="userSpaceOnUse">
      <stop stop-color="#162032"/>
      <stop offset="1" stop-color="#28415C"/>
    </linearGradient>
    <filter id="shadow" x="86" y="88" width="1024" height="646" filterUnits="userSpaceOnUse" color-interpolation-filters="sRGB">
      <feFlood flood-opacity="0" result="BackgroundImageFix"/>
      <feColorMatrix in="SourceAlpha" type="matrix" values="0 0 0 0 0 0 0 0 0 0 0 0 0 0 0 0 0 0 127 0" result="hardAlpha"/>
      <feOffset dy="22"/>
      <feGaussianBlur stdDeviation="28"/>
      <feComposite in2="hardAlpha" operator="out"/>
      <feColorMatrix type="matrix" values="0 0 0 0 0.09 0 0 0 0 0.11 0 0 0 0 0.17 0 0 0 0.22 0"/>
      <feBlend mode="normal" in2="BackgroundImageFix" result="effect1_dropShadow_1_1"/>
      <feBlend mode="normal" in="SourceGraphic" in2="effect1_dropShadow_1_1" result="shape"/>
    </filter>
  </defs>

  <rect width="1200" height="820" rx="44" fill="url(#bg)"/>
  <circle cx="248" cy="154" r="136" fill="#FFF1DF" fill-opacity="0.12"/>
  <circle cx="1012" cy="676" r="180" fill="#C8FFF6" fill-opacity="0.10"/>
  <path d="M140 690C311 594 492 632 630 694" stroke="#FFEDD8" stroke-opacity="0.2" stroke-width="18" stroke-linecap="round"/>

  <g filter="url(#shadow)">
    <rect x="128" y="110" width="430" height="568" rx="34" fill="url(#sheet)"/>
    <rect x="640" y="148" width="430" height="530" rx="34" fill="url(#jsonCard)"/>
    <rect x="584" y="308" width="42" height="42" rx="21" fill="#FFF7EF"/>
    <rect x="584" y="376" width="42" height="42" rx="21" fill="#FFF7EF"/>
    <rect x="584" y="444" width="42" height="42" rx="21" fill="#FFF7EF"/>
  </g>

  <rect x="164" y="150" width="352" height="52" rx="18" fill="#EDE1D4"/>
  <text x="188" y="184" fill="#223047" font-family="Arial, Helvetica, sans-serif" font-size="24" font-weight="700">PRODUCT SHEET (.CSV)</text>

  <rect x="166" y="236" width="352" height="62" rx="18" fill="#FFFFFF"/>
  <rect x="166" y="320" width="352" height="62" rx="18" fill="#FFFFFF"/>
  <rect x="166" y="404" width="352" height="62" rx="18" fill="#FFFFFF"/>
  <rect x="166" y="488" width="352" height="62" rx="18" fill="#FFFFFF"/>
  <rect x="166" y="572" width="352" height="62" rx="18" fill="#FFFFFF"/>

  <g fill="#223047" font-family="Arial, Helvetica, sans-serif" font-size="20" font-weight="700">
    <text x="188" y="274">sku</text>
    <text x="278" y="274">title</text>
    <text x="388" y="274">price</text>
    <text x="188" y="358">SKU-1001</text>
    <text x="318" y="358">Starter Tee</text>
    <text x="188" y="442">SKU-1002</text>
    <text x="318" y="442">Classic Shirt</text>
    <text x="188" y="526">image_url</text>
    <text x="188" y="610">tags</text>
  </g>

  <g fill="#6B7385" font-family="Courier New, monospace" font-size="17">
    <text x="388" y="358">499</text>
    <text x="388" y="442">799</text>
    <text x="188" y="554">https://example.com/tee.jpg?utm=1</text>
    <text x="188" y="638">summer, cotton, basics</text>
  </g>

  <path d="M584 329H550" stroke="#FFF7EF" stroke-width="10" stroke-linecap="round"/>
  <path d="M584 397H550" stroke="#FFF7EF" stroke-width="10" stroke-linecap="round"/>
  <path d="M584 465H550" stroke="#FFF7EF" stroke-width="10" stroke-linecap="round"/>
  <path d="M568 319L584 329L568 339" stroke="#FFF7EF" stroke-width="6" stroke-linecap="round" stroke-linejoin="round"/>
  <path d="M568 387L584 397L568 407" stroke="#FFF7EF" stroke-width="6" stroke-linecap="round" stroke-linejoin="round"/>
  <path d="M568 455L584 465L568 475" stroke="#FFF7EF" stroke-width="6" stroke-linecap="round" stroke-linejoin="round"/>

  <rect x="672" y="182" width="132" height="30" rx="15" fill="#1A7D75"/>
  <text x="700" y="202" fill="#EAFBF8" font-family="Arial, Helvetica, sans-serif" font-size="16" font-weight="700">JSON READY</text>

  <g fill="#DCE8FF" font-family="Courier New, monospace" font-size="22">
    <text x="684" y="266">[</text>
    <text x="712" y="302">{</text>
    <text x="740" y="338">"sku": <tspan fill="#7FE1D5">"SKU-1001"</tspan>,</text>
    <text x="740" y="374">"title": <tspan fill="#7FE1D5">"Starter Tee"</tspan>,</text>
    <text x="740" y="410">"price": <tspan fill="#FFC38F">499</tspan>,</text>
    <text x="740" y="446">"inStock": <tspan fill="#A2EEB4">true</tspan>,</text>
    <text x="740" y="482">"tags": [<tspan fill="#7FE1D5">"summer"</tspan>, <tspan fill="#7FE1D5">"cotton"</tspan>]</text>
    <text x="712" y="518">}</text>
    <text x="684" y="554">]</text>
  </g>

  <rect x="864" y="574" width="152" height="48" rx="20" fill="#FFF7EF"/>
  <text x="889" y="605" fill="#1F2A3B" font-family="Arial, Helvetica, sans-serif" font-size="22" font-weight="700">Import Clean</text>

  <text x="148" y="748" fill="#FFF4E8" font-family="Arial, Helvetica, sans-serif" font-size="28" font-weight="700">CSV to JSON Converter for Product Imports</text>
  <text x="148" y="780" fill="#FCE6D7" font-family="Arial, Helvetica, sans-serif" font-size="18">Original illustration for Advanced Data Cleaner Suite articles</text>
</svg>
